# 무명극 오리가미 백조 — swan.py 생성
mtllib regr_origami_swan.mtl
o origami_swan
v 0.028800 0.016800 0.000000
v -0.031200 0.019200 0.000000
v 0.002400 0.033600 -0.018000
v 0.002400 0.033600 0.018000
v -0.021600 0.031200 -0.013200
v -0.021600 0.031200 0.013200
v 0.007200 0.033600 -0.016800
v -0.028800 0.032400 -0.012000
v -0.016800 0.064800 -0.028800
v 0.006000 0.036000 -0.014400
v -0.030000 0.036000 -0.009600
v -0.016800 0.060000 -0.022800
v 0.007200 0.033600 0.016800
v -0.028800 0.032400 0.012000
v -0.016800 0.064800 0.028800
v 0.006000 0.036000 0.014400
v -0.030000 0.036000 0.009600
v -0.016800 0.060000 0.022800
v -0.038400 0.015600 -0.008400
v -0.038400 0.015600 0.008400
v -0.062400 0.043200 0.000000
v 0.028200 0.036000 0.000000
v 0.010200 0.036000 -0.009000
v 0.010200 0.036000 0.009000
v 0.037800 0.067200 0.000000
v 0.024600 0.067200 -0.006600
v 0.024600 0.067200 0.006600
v 0.040800 0.096000 0.000000
v 0.031200 0.096000 -0.004800
v 0.031200 0.096000 0.004800
v 0.039840 0.115200 0.000000
v 0.032160 0.115200 -0.003840
v 0.032160 0.115200 0.003840
v 0.036000 0.120000 0.000000
v 0.040800 0.115800 -0.002160
v 0.040800 0.115800 0.002160
v 0.060000 0.111000 0.000000
usemtl paper_face
f 1 3 4
f 3 5 6
f 3 6 4
f 2 6 5
f 7 9 8
f 13 14 15
f 19 20 21
f 22 23 26
f 22 26 25
f 23 24 27
f 23 27 26
f 24 22 25
f 24 25 27
f 25 26 29
f 25 29 28
f 26 27 30
f 26 30 29
f 27 25 28
f 27 28 30
f 28 29 32
f 28 32 31
f 29 30 33
f 29 33 32
f 30 28 31
f 30 31 33
f 31 32 34
f 32 33 34
f 33 31 34
usemtl paper_shade
f 1 4 2
f 1 2 3
f 10 11 12
f 16 18 17
f 20 19 21
usemtl paper_blush
f 35 36 37
f 36 35 37
