# 무명극 연필 — pencil.py 생성
mtllib proj_pencil.mtl
o pencil
v 0.000000 0.000000 0.000000
v 0.001098 0.003850 0.000000
v 0.000549 0.003850 0.000951
v -0.000549 0.003850 0.000951
v -0.001098 0.003850 0.000000
v -0.000549 0.003850 -0.000951
v 0.000549 0.003850 -0.000951
v 0.004273 0.018375 0.000000
v 0.002137 0.018375 0.003701
v -0.002137 0.018375 0.003701
v -0.004273 0.018375 0.000000
v -0.002137 0.018375 -0.003701
v 0.002137 0.018375 -0.003701
v 0.004251 0.152250 0.000000
v 0.002125 0.152250 0.003681
v -0.002125 0.152250 0.003681
v -0.004251 0.152250 0.000000
v -0.002125 0.152250 -0.003681
v 0.002125 0.152250 -0.003681
v 0.004232 0.158375 0.000000
v 0.002116 0.158375 0.003665
v -0.002116 0.158375 0.003665
v -0.004232 0.158375 0.000000
v -0.002116 0.158375 -0.003665
v 0.002116 0.158375 -0.003665
v 0.004080 0.171500 0.000000
v 0.002040 0.171500 0.003533
v -0.002040 0.171500 0.003533
v -0.004080 0.171500 0.000000
v -0.002040 0.171500 -0.003533
v 0.002040 0.171500 -0.003533
v 0.003074 0.175000 0.000000
v 0.001537 0.175000 0.002662
v -0.001537 0.175000 0.002662
v -0.003074 0.175000 0.000000
v -0.001537 0.175000 -0.002662
v 0.001537 0.175000 -0.002662
v 0.000000 0.175000 0.000000
usemtl pencil_body
f 8 9 15 14
f 9 10 16 15
f 10 11 17 16
f 11 12 18 17
f 12 13 19 18
f 13 8 14 19
usemtl pencil_wood
f 2 3 9 8
f 3 4 10 9
f 4 5 11 10
f 5 6 12 11
f 6 7 13 12
f 7 2 8 13
usemtl pencil_lead
f 1 2 3
f 1 3 4
f 1 4 5
f 1 5 6
f 1 6 7
f 1 7 2
usemtl pencil_ferrule
f 14 15 21 20
f 15 16 22 21
f 16 17 23 22
f 17 18 24 23
f 18 19 25 24
f 19 14 20 25
usemtl pencil_eraser
f 20 21 27 26
f 21 22 28 27
f 22 23 29 28
f 23 24 30 29
f 24 25 31 30
f 25 20 26 31
f 26 27 33 32
f 27 28 34 33
f 28 29 35 34
f 29 30 36 35
f 30 31 37 36
f 31 26 32 37
f 32 38 33
f 33 38 34
f 34 38 35
f 35 38 36
f 36 38 37
f 37 38 32
